<?xml version="1.0" encoding="UTF-8" standalone="no"?>
<svg width="800" height="600" xmlns="http://www.w3.org/2000/svg">
  <!-- Styles -->
  <defs>
    <style>
      .component {
        fill: #f0f8ff;
        stroke: #4682b4;
        stroke-width: 2;
      }
      .core-component {
        fill: #e6f7ff;
        stroke: #1890ff;
        stroke-width: 2;
      }
      .client-component {
        fill: #f6ffed;
        stroke: #52c41a;
        stroke-width: 2;
      }
      .server-component {
        fill: #fff2e8;
        stroke: #fa8c16;
        stroke-width: 2;
      }
      .arrow {
        stroke: #666;
        stroke-width: 2;
        fill: none;
        marker-end: url(#arrowhead);
      }
      .label {
        font-family: Arial, sans-serif;
        font-size: 14px;
        text-anchor: middle;
        dominant-baseline: middle;
      }
      .title {
        font-family: Arial, sans-serif;
        font-size: 16px;
        font-weight: bold;
        text-anchor: middle;
      }
      .subtitle {
        font-family: Arial, sans-serif;
        font-size: 12px;
        fill: #666;
        text-anchor: middle;
      }
    </style>
    <marker id="arrowhead" markerWidth="10" markerHeight="7" refX="9" refY="3.5" orient="auto">
      <polygon points="0 0, 10 3.5, 0 7" fill="#666" />
    </marker>
  </defs>

  <!-- Background -->
  <rect width="800" height="600" fill="#ffffff" />

  <!-- Title -->
  <text x="400" y="40" class="title">A2A Platform Architecture</text>
  <text x="400" y="60" class="subtitle">Agent-to-Agent Communication Framework</text>

  <!-- Core Package (@dexwox-labs/a2a-core) -->
  <rect x="300" y="100" width="200" height="120" class="component core-component" rx="10" ry="10" />
  <text x="400" y="125" class="title">@dexwox-labs/a2a-core</text>
  <text x="400" y="150" class="label">Types</text>
  <text x="400" y="170" class="label">Protocols</text>
  <text x="400" y="190" class="label">Validation</text>
  <text x="400" y="210" class="label">Errors</text>

  <!-- Client Package (@dexwox-labs/a2a-client) -->
  <rect x="100" y="280" width="200" height="160" class="component client-component" rx="10" ry="10" />
  <text x="200" y="305" class="title">@dexwox-labs/a2a-client</text>
  <text x="200" y="330" class="label">AgentClient</text>
  <text x="200" y="350" class="label">MessageClient</text>
  <text x="200" y="370" class="label">TaskClient</text>
  <text x="200" y="390" class="label">HttpClient</text>
  <text x="200" y="410" class="label">WebSocketClient</text>

  <!-- Server Package (@dexwox-labs/a2a-server) -->
  <rect x="500" y="280" width="200" height="160" class="component server-component" rx="10" ry="10" />
  <text x="600" y="305" class="title">@dexwox-labs/a2a-server</text>
  <text x="600" y="330" class="label">Server</text>
  <text x="600" y="350" class="label">TaskStore</text>
  <text x="600" y="370" class="label">RequestHandlers</text>
  <text x="600" y="390" class="label">AgentExecution</text>
  <text x="600" y="410" class="label">Middleware</text>

  <!-- Node Package (@dexwox-labs/a2a-node) -->
  <rect x="300" y="500" width="200" height="60" class="component" rx="10" ry="10" />
  <text x="400" y="525" class="title">@dexwox-labs/a2a-node</text>
  <text x="400" y="545" class="label">Integration &amp; Examples</text>

  <!-- Arrows -->
  <!-- Core to Client -->
  <path d="M 300 160 L 200 280" class="arrow" />
  <!-- Core to Server -->
  <path d="M 500 160 L 600 280" class="arrow" />
  <!-- Client to Node -->
  <path d="M 200 440 L 300 530" class="arrow" />
  <!-- Server to Node -->
  <path d="M 600 440 L 500 530" class="arrow" />
  <!-- Client to Server and Server to Client (HTTP/WebSocket) -->
  <path d="M 300 350 L 500 350" class="arrow" />
  <path d="M 500 370 L 300 370" class="arrow" />
  <text x="400" y="335" class="label">HTTP/WebSocket</text>

  <!-- External Components -->
  <!-- Client Applications -->
  <rect x="100" y="100" width="120" height="60" class="component" rx="10" ry="10" />
  <text x="160" y="130" class="label">Client Applications</text>
  <path d="M 160 160 L 160 280" class="arrow" />

  <!-- Agents -->
  <rect x="580" y="100" width="120" height="60" class="component" rx="10" ry="10" />
  <text x="640" y="130" class="label">Agents</text>
  <path d="M 640 160 L 640 280" class="arrow" />
</svg>
